<svg width="64" height="60" viewBox="0 0 64 60" fill="none" xmlns="http://www.w3.org/2000/svg">
<g id="game-icons:steering-wheel">
<path id="Vector" d="M31.8014 2.92969C15.9379 2.92969 3.10553 15.0352 3.10553 30C3.10553 44.9648 15.9379 57.0703 31.8014 57.0703C47.6649 57.0703 60.4972 44.9648 60.4972 30C60.4972 15.0352 47.6649 2.92969 31.8014 2.92969ZM31.8014 6.44531C45.5779 6.44531 56.7705 17.0039 56.7705 30C56.7705 42.9961 45.5779 53.5547 31.8014 53.5547C18.0249 53.5547 6.83226 42.9961 6.83226 30C6.83226 17.0039 18.0249 6.44531 31.8014 6.44531ZM10.0025 23.8945C9.41738 26.1445 9.06831 28.2305 9.06831 30.2227C27.0436 33.7734 24.1616 37.5352 27.4535 51.0586C28.8697 51.3047 30.3107 51.4453 31.8014 51.4453C33.2921 51.4453 34.7331 51.3047 36.1492 51.0586C39.4412 37.5352 36.5592 33.7734 54.5345 30.2227C54.4599 28.0078 54.1618 25.7227 53.6028 23.8945C43.0686 21.4102 37.4039 20.1563 31.8014 20.1563C26.1989 20.1563 20.5342 21.4102 10.0025 23.8945ZM31.8014 21.4453C36.7952 21.4453 40.8698 25.2891 40.8698 30C40.8698 34.7109 36.7952 38.5547 31.8014 38.5547C26.8076 38.5547 22.733 34.7109 22.733 30C22.733 25.2891 26.8076 21.4453 31.8014 21.4453ZM31.8014 23.5547C28.0125 23.5547 24.969 26.4258 24.969 30C24.969 33.5742 28.0125 36.4453 31.8014 36.4453C35.5902 36.4453 38.6337 33.5742 38.6337 30C38.6337 26.4258 35.5902 23.5547 31.8014 23.5547Z" fill="white"/>
</g>
</svg>
