<svg width="169" height="67" viewBox="0 0 169 67" fill="none" xmlns="http://www.w3.org/2000/svg">
<path d="M34.6737 3.27148C17.3774 3.27148 3.38599 16.7893 3.38599 33.5C3.38599 50.2107 17.3774 63.7285 34.6737 63.7285C51.97 63.7285 65.9615 50.2107 65.9615 33.5C65.9615 16.7893 51.97 3.27148 34.6737 3.27148ZM34.6737 7.19727C49.6946 7.19727 61.8981 18.9877 61.8981 33.5C61.8981 48.0123 49.6946 59.8027 34.6737 59.8027C19.6529 59.8027 7.44933 48.0123 7.44933 33.5C7.44933 18.9877 19.6529 7.19727 34.6737 7.19727ZM10.9059 26.6822C10.2679 29.1947 9.88734 31.524 9.88734 33.7486C29.4862 37.7137 26.3439 41.9143 29.9332 57.0154C31.4772 57.2902 33.0484 57.4473 34.6737 57.4473C36.2991 57.4473 37.8702 57.2902 39.4143 57.0154C43.0036 41.9143 39.8613 37.7137 59.4601 33.7486C59.3789 31.2754 59.0538 28.7236 58.4443 26.6822C46.9586 23.908 40.7823 22.5078 34.6737 22.5078C28.5652 22.5078 22.3889 23.908 10.9059 26.6822ZM34.6737 23.9473C40.1186 23.9473 44.5612 28.2395 44.5612 33.5C44.5612 38.7606 40.1186 43.0527 34.6737 43.0527C29.2288 43.0527 24.7863 38.7606 24.7863 33.5C24.7863 28.2395 29.2288 23.9473 34.6737 23.9473ZM34.6737 26.3027C30.5427 26.3027 27.2243 29.5088 27.2243 33.5C27.2243 37.4912 30.5427 40.6973 34.6737 40.6973C38.8048 40.6973 42.1232 37.4912 42.1232 33.5C42.1232 29.5088 38.8048 26.3027 34.6737 26.3027Z" fill="white"/>
<path d="M98.5979 16.9648C98.6955 17.1276 98.7443 17.502 98.7443 18.0879C98.7769 18.6738 98.7606 19.3086 98.6955 19.9922C98.6304 20.6758 98.5327 21.3431 98.4025 21.9941C98.3049 22.6126 98.1909 23.0195 98.0607 23.2148C97.9631 23.3776 97.3609 23.4427 96.2541 23.4102C95.1799 23.3451 93.6337 23.1823 91.6154 22.9219C91.6154 24.1914 91.5992 25.819 91.5666 27.8047C91.534 29.7904 91.4689 31.9225 91.3713 34.2012C91.3062 36.4473 91.2248 38.7096 91.1271 40.9883C91.062 43.2669 90.9807 45.334 90.883 47.1895C90.7854 49.0449 90.6877 50.5586 90.59 51.7305C90.4924 52.9023 90.411 53.5208 90.3459 53.5859C90.2157 53.6836 89.9878 53.6348 89.6623 53.4395C89.3693 53.2767 89.0601 53.0326 88.7346 52.707C88.409 52.3815 88.0998 52.056 87.8068 51.7305C87.5464 51.3724 87.3674 51.0632 87.2697 50.8027C87.2372 50.6725 87.1721 50.0378 87.0744 48.8984C87.0093 47.7591 86.9279 46.3268 86.8303 44.6016C86.7326 42.8763 86.6187 40.9557 86.4885 38.8398C86.3583 36.724 86.2281 34.6243 86.0979 32.541C85.9676 30.4577 85.8212 28.5046 85.6584 26.6816C85.5282 24.8587 85.4143 23.3451 85.3166 22.1406C83.1031 21.9128 81.508 21.6849 80.5314 21.457C79.5549 21.2292 79.0015 21.0501 78.8713 20.9199C78.7411 20.7897 78.6109 20.5456 78.4807 20.1875C78.3179 19.7969 78.1877 19.4062 78.09 19.0156C77.9924 18.625 77.9436 18.2669 77.9436 17.9414C77.911 17.5833 77.9436 17.3555 78.0412 17.2578C78.1063 17.1927 78.6597 17.1276 79.7014 17.0625C80.7105 16.9974 81.9637 16.9323 83.4611 16.8672C84.9585 16.8021 86.5699 16.7533 88.2951 16.7207C90.0529 16.6882 91.6805 16.6719 93.1779 16.6719C94.6753 16.6719 95.9286 16.7044 96.9377 16.7695C97.9794 16.8021 98.5327 16.8672 98.5979 16.9648ZM103.383 32.0039C103.448 32.1667 103.481 32.6875 103.481 33.5664C103.513 34.4128 103.513 35.4544 103.481 36.6914C103.481 37.8958 103.448 39.1979 103.383 40.5977C103.318 41.9648 103.237 43.2669 103.139 44.5039C103.074 45.7083 102.992 46.75 102.895 47.6289C102.797 48.4753 102.699 48.9798 102.602 49.1426C102.309 49.5983 101.869 49.8913 101.283 50.0215C100.697 50.1191 100.274 50.1354 100.014 50.0703C99.8837 50.0703 99.7372 49.696 99.5744 48.9473C99.4442 48.1986 99.314 47.2546 99.1838 46.1152C99.0536 44.9759 98.9396 43.7389 98.842 42.4043C98.7443 41.0697 98.663 39.8001 98.5979 38.5957C98.5327 37.3587 98.5002 36.2845 98.5002 35.373C98.5002 34.4616 98.5327 33.8757 98.5979 33.6152C98.6955 33.1921 98.9722 32.8177 99.4279 32.4922C99.9162 32.1667 100.421 31.9225 100.942 31.7598C101.495 31.597 102 31.5319 102.455 31.5645C102.944 31.5645 103.253 31.7109 103.383 32.0039ZM103.627 24.0938C103.757 24.3542 103.806 24.7122 103.774 25.168C103.774 25.6237 103.725 26.0957 103.627 26.584C103.529 27.0723 103.399 27.5443 103.237 28C103.074 28.4557 102.911 28.8138 102.748 29.0742C102.423 29.5299 101.934 29.8229 101.283 29.9531C100.665 30.0508 100.209 30.0671 99.9162 30.002C99.6883 29.9694 99.4605 29.8229 99.2326 29.5625C99.0048 29.2695 98.8094 28.9277 98.6467 28.5371C98.4839 28.1139 98.37 27.6582 98.3049 27.1699C98.2398 26.6816 98.2561 26.2259 98.3537 25.8027C98.4514 25.3796 98.7606 25.0052 99.2814 24.6797C99.8023 24.3216 100.356 24.0612 100.942 23.8984C101.528 23.7031 102.081 23.6217 102.602 23.6543C103.123 23.6543 103.464 23.8008 103.627 24.0938ZM116.615 20.9199C116.55 20.8223 116.436 20.7246 116.274 20.627C116.143 20.5293 115.981 20.4479 115.785 20.3828C115.59 20.3177 115.395 20.3014 115.199 20.334C115.037 20.334 114.906 20.3991 114.809 20.5293C114.711 20.6921 114.532 21.3105 114.272 22.3848C114.044 23.4264 113.8 24.7285 113.539 26.291C113.279 27.8535 113.051 29.5951 112.856 31.5156C112.66 33.4362 112.563 35.3405 112.563 37.2285C112.563 38.5957 112.612 40.028 112.709 41.5254C112.807 42.9902 112.921 44.3411 113.051 45.5781C113.214 46.8151 113.393 47.8405 113.588 48.6543C113.816 49.4355 114.044 49.8262 114.272 49.8262C114.5 49.8587 114.809 49.6146 115.199 49.0938C115.59 48.5729 115.964 47.987 116.322 47.3359C116.681 46.6523 117.006 46.0013 117.299 45.3828C117.625 44.7318 117.836 44.2923 117.934 44.0645C118.064 43.7064 118.243 43.3158 118.471 42.8926C118.699 42.4368 118.927 42.0299 119.154 41.6719C119.382 41.2812 119.61 40.972 119.838 40.7441C120.066 40.4837 120.261 40.3535 120.424 40.3535C120.619 40.3535 120.782 40.5488 120.912 40.9395C121.075 41.3301 121.189 41.8021 121.254 42.3555C121.352 42.8763 121.417 43.4297 121.449 44.0156C121.482 44.569 121.498 45.0247 121.498 45.3828C121.498 46.0339 121.368 46.8477 121.108 47.8242C120.88 48.8008 120.571 49.7448 120.18 50.6562C119.822 51.5677 119.415 52.349 118.959 53C118.536 53.651 118.129 53.9603 117.738 53.9277C117.348 53.8952 116.713 53.6673 115.834 53.2441C114.988 52.821 114.109 52.3327 113.197 51.7793C112.286 51.2259 111.456 50.6725 110.707 50.1191C109.959 49.5658 109.519 49.1263 109.389 48.8008C109.226 48.5078 108.982 47.8079 108.656 46.7012C108.363 45.5618 108.054 44.1947 107.729 42.5996C107.403 41.0046 107.11 39.2467 106.85 37.3262C106.622 35.4056 106.508 33.4688 106.508 31.5156C106.508 29.5625 106.524 27.6419 106.557 25.7539C106.589 23.8333 106.654 22.1243 106.752 20.627C106.882 19.1296 107.078 17.9251 107.338 17.0137C107.599 16.0697 107.957 15.5651 108.412 15.5C109.324 15.4023 110.317 15.4674 111.391 15.6953C112.465 15.8906 113.539 16.1999 114.613 16.623C115.688 17.0462 116.713 17.5345 117.69 18.0879C118.699 18.6087 119.594 19.1621 120.375 19.748C121.156 20.3014 121.775 20.8385 122.231 21.3594C122.719 21.8802 122.979 22.3197 123.012 22.6777C123.044 23.2311 122.979 23.8496 122.817 24.5332C122.654 25.2168 122.459 25.8841 122.231 26.5352C122.003 27.1536 121.759 27.7233 121.498 28.2441C121.27 28.7324 121.091 29.0742 120.961 29.2695C120.798 29.4974 120.603 29.7415 120.375 30.002C120.147 30.2624 119.903 30.4902 119.643 30.6855C119.415 30.8809 119.171 31.0273 118.91 31.125C118.682 31.1901 118.471 31.1413 118.276 30.9785C118.145 30.8809 118.015 30.5716 117.885 30.0508C117.787 29.5299 117.673 28.9115 117.543 28.1953C117.446 27.4792 117.348 26.7142 117.25 25.9004C117.153 25.054 117.055 24.2728 116.957 23.5566C116.892 22.8405 116.827 22.2383 116.762 21.75C116.697 21.2617 116.648 20.985 116.615 20.9199ZM137.416 27.3164C137.612 27.5443 137.791 27.7884 137.953 28.0488C138.116 28.2767 138.263 28.6022 138.393 29.0254C138.523 29.416 138.621 29.9368 138.686 30.5879C138.783 31.2389 138.832 32.0853 138.832 33.127C138.832 34.7871 138.783 36.4635 138.686 38.1562C138.621 39.8164 138.556 41.2812 138.49 42.5508C138.458 43.6901 138.425 44.748 138.393 45.7246C138.36 46.7012 138.328 47.5638 138.295 48.3125C138.263 49.0286 138.214 49.5983 138.149 50.0215C138.116 50.4447 138.084 50.6725 138.051 50.7051C137.921 50.8027 137.709 50.7702 137.416 50.6074C137.156 50.4121 136.863 50.168 136.537 49.875C136.244 49.582 135.968 49.2728 135.707 48.9473C135.447 48.6217 135.284 48.3613 135.219 48.166C135.219 48.0033 135.17 47.5312 135.072 46.75C134.291 47.2057 133.429 47.5312 132.485 47.7266C131.541 47.8893 130.597 47.9544 129.653 47.9219C128.741 47.8568 127.895 47.6777 127.113 47.3848C126.332 47.0918 125.746 46.7012 125.356 46.2129C125.193 46.0176 125.046 45.7246 124.916 45.334C124.819 44.9434 124.721 44.5039 124.623 44.0156C124.558 43.4948 124.493 42.9577 124.428 42.4043C124.363 41.8184 124.314 41.2812 124.281 40.793C124.216 39.5234 124.379 38.4329 124.77 37.5215C125.16 36.5775 125.876 35.8776 126.918 35.4219C127.374 35.2266 127.976 35.1289 128.725 35.1289C129.506 35.0964 130.271 35.1289 131.02 35.2266C131.801 35.2917 132.501 35.3893 133.119 35.5195C133.738 35.6172 134.128 35.6986 134.291 35.7637C134.161 34.1035 134.063 32.6712 133.998 31.4668C133.933 30.2298 133.803 29.4323 133.608 29.0742C133.445 28.8464 133.25 28.6185 133.022 28.3906C132.826 28.2279 132.566 28.0488 132.24 27.8535C131.915 27.6582 131.524 27.5117 131.069 27.4141C130.71 27.349 130.385 27.4954 130.092 27.8535C129.832 28.179 129.587 28.765 129.36 29.6113C129.164 30.4251 129.05 31.6784 129.018 33.3711C127.878 33.4036 127 33.4036 126.381 33.3711C125.795 33.306 125.356 33.2409 125.063 33.1758C124.705 33.1107 124.493 33.0293 124.428 32.9316C124.363 32.8014 124.395 32.3294 124.526 31.5156C124.656 30.6693 124.835 29.7578 125.063 28.7812C125.323 27.8047 125.616 26.877 125.942 25.998C126.3 25.1191 126.674 24.5658 127.065 24.3379C127.846 23.8822 128.774 23.7194 129.848 23.8496C130.955 23.9798 132.029 24.2565 133.071 24.6797C134.112 25.1029 135.04 25.5749 135.854 26.0957C136.668 26.6165 137.188 27.0234 137.416 27.3164ZM134.389 41.5742C134.389 41.4115 134.405 41.1999 134.438 40.9395C134.47 40.6465 134.487 40.3535 134.487 40.0605C134.487 39.7676 134.47 39.4909 134.438 39.2305C134.438 38.9701 134.405 38.7747 134.34 38.6445C134.242 38.4492 133.949 38.2865 133.461 38.1562C133.005 38.026 132.485 37.9447 131.899 37.9121C131.313 37.847 130.759 37.8307 130.238 37.8633C129.718 37.8633 129.36 37.9284 129.164 38.0586C128.904 38.2214 128.709 38.4492 128.578 38.7422C128.481 39.0352 128.416 39.4909 128.383 40.1094C128.383 40.4023 128.399 40.7116 128.432 41.0371C128.464 41.3626 128.497 41.6882 128.529 42.0137C128.595 42.3066 128.66 42.5671 128.725 42.7949C128.822 43.0228 128.92 43.1693 129.018 43.2344C129.246 43.3971 129.636 43.5436 130.19 43.6738C130.776 43.7715 131.362 43.804 131.947 43.7715C132.533 43.7064 133.071 43.5111 133.559 43.1855C134.047 42.86 134.324 42.3229 134.389 41.5742ZM152.553 26.3887C152.813 26.5514 153.057 26.877 153.285 27.3652C153.546 27.821 153.774 28.3581 153.969 28.9766C154.197 29.5625 154.376 30.1973 154.506 30.8809C154.669 31.5645 154.799 32.1992 154.897 32.7852C155.027 33.3711 155.108 33.8757 155.141 34.2988C155.173 34.6895 155.173 34.9336 155.141 35.0312C155.076 35.1615 154.88 35.2917 154.555 35.4219C154.262 35.5521 153.822 35.6986 153.237 35.8613C152.651 36.0241 151.837 36.2031 150.795 36.3984C150.73 34.6081 150.6 33.2572 150.404 32.3457C150.209 31.4017 149.998 30.7344 149.77 30.3438C149.509 29.888 149.233 29.6602 148.94 29.6602C148.647 29.7904 148.386 29.9531 148.158 30.1484C147.931 30.3112 147.735 30.4902 147.572 30.6855C147.377 30.9134 147.198 31.1576 147.035 31.418C146.97 31.5156 146.905 31.7435 146.84 32.1016C146.775 32.4596 146.71 32.9967 146.645 33.7129C146.645 33.9408 146.628 34.4128 146.596 35.1289C146.596 35.8451 146.58 36.6751 146.547 37.6191C146.547 38.5632 146.531 39.556 146.498 40.5977C146.498 41.6393 146.482 42.6159 146.449 43.5273C146.449 44.4062 146.433 45.1549 146.401 45.7734C146.401 46.3919 146.384 46.75 146.352 46.8477C146.287 47.0104 146.124 47.2383 145.863 47.5312C145.603 47.8242 145.31 48.1009 144.985 48.3613C144.659 48.5892 144.35 48.7845 144.057 48.9473C143.764 49.0775 143.569 49.0612 143.471 48.8984C143.373 48.8008 143.276 48.3776 143.178 47.6289C143.08 46.8802 142.966 45.9688 142.836 44.8945C142.738 43.7878 142.625 42.5833 142.494 41.2812C142.364 39.9792 142.25 38.7259 142.153 37.5215C142.055 36.3171 141.973 35.2428 141.908 34.2988C141.843 33.3223 141.794 32.6224 141.762 32.1992C141.729 31.5807 141.697 30.8971 141.664 30.1484C141.632 29.3997 141.599 28.6999 141.567 28.0488C141.567 27.3652 141.567 26.7793 141.567 26.291C141.599 25.7702 141.664 25.4609 141.762 25.3633C141.827 25.2656 142.039 25.2493 142.397 25.3145C142.787 25.347 143.194 25.4447 143.617 25.6074C144.073 25.7376 144.496 25.9167 144.887 26.1445C145.278 26.3724 145.538 26.584 145.668 26.7793C145.766 26.9421 145.863 27.1862 145.961 27.5117C146.58 27.1862 147.166 26.8932 147.719 26.6328C148.305 26.3398 148.858 26.1283 149.379 25.998C149.932 25.8678 150.47 25.8353 150.99 25.9004C151.511 25.9329 152.032 26.0957 152.553 26.3887Z" fill="white"/>
</svg>
